HIERARCHY
ROOT Hips
{
	OFFSET -0.561981 88.293213 6.116135
	CHANNELS 6 Xposition Yposition Zposition Zrotation Yrotation Xrotation 
	JOINT Spine
	{
		OFFSET -0.000000 8.814246 -2.080107
		CHANNELS 3 Zrotation Yrotation Xrotation
		JOINT Spine1
		{
			OFFSET -0.000000 8.844141 -0.000000
			CHANNELS 3 Zrotation Yrotation Xrotation
			JOINT Spine2
			{
				OFFSET -0.000000 11.682268 0.000000
				CHANNELS 3 Zrotation Yrotation Xrotation
				JOINT Spine3
				{
					OFFSET 0.000000 11.746700 -0.000000
					CHANNELS 3 Zrotation Yrotation Xrotation
					JOINT Neck
					{
						OFFSET 0.000000 17.658264 -0.000000
						CHANNELS 3 Zrotation Yrotation Xrotation
						JOINT Neck1
						{
							OFFSET 0.000000 5.101515 -0.000000
							CHANNELS 3 Zrotation Yrotation Xrotation
							JOINT Head
							{
								OFFSET -0.000000 5.101515 -0.000000
								CHANNELS 3 Zrotation Yrotation Xrotation
								JOINT HeadEnd
								{
									OFFSET -0.000000 11.655085 0.000000
									CHANNELS 3 Zrotation Yrotation Xrotation
									End Site
									{
										OFFSET 0.000000 0.000000 0.000000
									}
								}
							}
						}
					}
					JOINT RightShoulder
					{
						OFFSET -2.625389 11.175210 -0.000000
						CHANNELS 3 Zrotation Yrotation Xrotation
						JOINT RightArm
						{
							OFFSET -0.000000 10.434715 0.000000
							CHANNELS 3 Zrotation Yrotation Xrotation
							JOINT RightForeArm
							{
								OFFSET 0.000000 29.628420 -0.000000
								CHANNELS 3 Zrotation Yrotation Xrotation
								JOINT RightHand
								{
									OFFSET 0.000000 22.857611 -0.000000
									CHANNELS 3 Zrotation Yrotation Xrotation
									JOINT RightHandThumb1
									{
										OFFSET -2.867323 3.959563 2.944291
										CHANNELS 3 Zrotation Yrotation Xrotation
										JOINT RightHandThumb2
										{
											OFFSET -0.000000 3.350399 0.000000
											CHANNELS 3 Zrotation Yrotation Xrotation
											JOINT RightHandThumb3
											{
												OFFSET 0.000000 3.756509 0.000000
												CHANNELS 3 Zrotation Yrotation Xrotation
												JOINT RightHandThumb4
												{
													OFFSET -0.000000 3.147345 -0.000000
													CHANNELS 3 Zrotation Yrotation Xrotation
													End Site
													{
														OFFSET 0.000000 0.000000 0.000000
													}
												}
											}
										}
									}
									JOINT RightHandIndex1
									{
										OFFSET -0.086752 10.030893 2.345280
										CHANNELS 3 Zrotation Yrotation Xrotation
										JOINT RightHandIndex2
										{
											OFFSET -0.000000 4.061090 0.000000
											CHANNELS 3 Zrotation Yrotation Xrotation
											JOINT RightHandIndex3
											{
												OFFSET -0.000000 3.248873 0.000000
												CHANNELS 3 Zrotation Yrotation Xrotation
												JOINT RightHandIndex4
												{
													OFFSET 0.000000 2.639709 0.000000
													CHANNELS 3 Zrotation Yrotation Xrotation
													End Site
													{
														OFFSET 0.000000 0.000000 0.000000
													}
												}
											}
										}
									}
									JOINT RightHandMiddle1
									{
										OFFSET 0.104102 9.502952 0.006768
										CHANNELS 3 Zrotation Yrotation Xrotation
										JOINT RightHandMiddle2
										{
											OFFSET -0.000000 4.568727 0.000000
											CHANNELS 3 Zrotation Yrotation Xrotation
											JOINT RightHandMiddle3
											{
												OFFSET 0.000000 3.654981 -0.000000
												CHANNELS 3 Zrotation Yrotation Xrotation
												JOINT RightHandMiddle4
												{
													OFFSET -0.000000 2.741236 0.000000
													CHANNELS 3 Zrotation Yrotation Xrotation
													End Site
													{
														OFFSET 0.000000 0.000000 0.000000
													}
												}
											}
										}
									}
									JOINT RightHandRing1
									{
										OFFSET 0.086752 8.921708 -2.267442
										CHANNELS 3 Zrotation Yrotation Xrotation
										JOINT RightHandRing2
										{
											OFFSET -0.000000 4.061090 0.000000
											CHANNELS 3 Zrotation Yrotation Xrotation
											JOINT RightHandRing3
											{
												OFFSET -0.000000 3.654981 0.000000
												CHANNELS 3 Zrotation Yrotation Xrotation
												JOINT RightHandRing4
												{
													OFFSET -0.000000 2.741236 0.000000
													CHANNELS 3 Zrotation Yrotation Xrotation
													End Site
													{
														OFFSET 0.000000 0.000000 0.000000
													}
												}
											}
										}
									}
									JOINT RightHandPinky1
									{
										OFFSET -0.173504 7.976997 -4.467199
										CHANNELS 3 Zrotation Yrotation Xrotation
										JOINT RightHandPinky2
										{
											OFFSET -0.000000 3.350399 0.000000
											CHANNELS 3 Zrotation Yrotation Xrotation
											JOINT RightHandPinky3
											{
												OFFSET 0.000000 2.842763 0.000000
												CHANNELS 3 Zrotation Yrotation Xrotation
												JOINT RightHandPinky4
												{
													OFFSET -0.000000 2.639709 0.000000
													CHANNELS 3 Zrotation Yrotation Xrotation
													End Site
													{
														OFFSET 0.000000 0.000000 0.000000
													}
												}
											}
										}
									}
									JOINT RightForeArmEnd
									{
										OFFSET 0.000000 0.000000 0.000000
										CHANNELS 3 Zrotation Yrotation Xrotation
										End Site
										{
											OFFSET 0.000000 0.000000 0.000000
										}
									}
								}
								JOINT RightArmEnd
								{
									OFFSET 0.000000 0.000000 0.000000
									CHANNELS 3 Zrotation Yrotation Xrotation
									End Site
									{
										OFFSET 0.000000 0.000000 0.000000
									}
								}
							}
						}
					}
					JOINT LeftShoulder
					{
						OFFSET 2.625389 11.175210 -0.000000
						CHANNELS 3 Zrotation Yrotation Xrotation
						JOINT LeftArm
						{
							OFFSET 0.000000 10.813635 -0.000000
							CHANNELS 3 Zrotation Yrotation Xrotation
							JOINT LeftForeArm
							{
								OFFSET 0.000000 28.724781 0.000000
								CHANNELS 3 Zrotation Yrotation Xrotation
								JOINT LeftHand
								{
									OFFSET 0.644384 25.716167 -0.328871
									CHANNELS 3 Zrotation Yrotation Xrotation
									JOINT LeftHandThumb1
									{
										OFFSET 2.867323 3.959563 2.944291
										CHANNELS 3 Zrotation Yrotation Xrotation
										JOINT LeftHandThumb2
										{
											OFFSET -0.000000 3.350399 0.000000
											CHANNELS 3 Zrotation Yrotation Xrotation
											JOINT LeftHandThumb3
											{
												OFFSET 0.000000 3.756509 0.000000
												CHANNELS 3 Zrotation Yrotation Xrotation
												JOINT LeftHandThumb4
												{
													OFFSET 0.000000 3.100000 -0.000000
													CHANNELS 3 Zrotation Yrotation Xrotation
													End Site
													{
														OFFSET 0.000000 0.000000 0.000000
													}
												}
											}
										}
									}
									JOINT LeftHandIndex1
									{
										OFFSET 0.086752 10.030893 2.345280
										CHANNELS 3 Zrotation Yrotation Xrotation
										JOINT LeftHandIndex2
										{
											OFFSET 0.000000 4.061090 0.000000
											CHANNELS 3 Zrotation Yrotation Xrotation
											JOINT LeftHandIndex3
											{
												OFFSET -0.000000 3.248873 -0.000000
												CHANNELS 3 Zrotation Yrotation Xrotation
												JOINT LeftHandIndex4
												{
													OFFSET -0.000000 2.639709 -0.000000
													CHANNELS 3 Zrotation Yrotation Xrotation
													End Site
													{
														OFFSET 0.000000 0.000000 0.000000
													}
												}
											}
										}
									}
									JOINT LeftHandMiddle1
									{
										OFFSET -0.104102 9.502952 0.006768
										CHANNELS 3 Zrotation Yrotation Xrotation
										JOINT LeftHandMiddle2
										{
											OFFSET 0.000000 4.568727 0.000000
											CHANNELS 3 Zrotation Yrotation Xrotation
											JOINT LeftHandMiddle3
											{
												OFFSET -0.000000 3.654981 0.000000
												CHANNELS 3 Zrotation Yrotation Xrotation
												JOINT LeftHandMiddle4
												{
													OFFSET -0.000000 2.741236 -0.000000
													CHANNELS 3 Zrotation Yrotation Xrotation
													End Site
													{
														OFFSET 0.000000 0.000000 0.000000
													}
												}
											}
										}
									}
									JOINT LeftHandRing1
									{
										OFFSET -0.086752 8.921708 -2.267442
										CHANNELS 3 Zrotation Yrotation Xrotation
										JOINT LeftHandRing2
										{
											OFFSET -0.000000 4.061090 -0.000000
											CHANNELS 3 Zrotation Yrotation Xrotation
											JOINT LeftHandRing3
											{
												OFFSET 0.000000 3.654981 -0.000000
												CHANNELS 3 Zrotation Yrotation Xrotation
												JOINT LeftHandRing4
												{
													OFFSET -0.000000 2.741236 -0.000000
													CHANNELS 3 Zrotation Yrotation Xrotation
													End Site
													{
														OFFSET 0.000000 0.000000 0.000000
													}
												}
											}
										}
									}
									JOINT LeftHandPinky1
									{
										OFFSET 0.173504 7.976997 -4.467199
										CHANNELS 3 Zrotation Yrotation Xrotation
										JOINT LeftHandPinky2
										{
											OFFSET 0.000000 3.350399 0.000000
											CHANNELS 3 Zrotation Yrotation Xrotation
											JOINT LeftHandPinky3
											{
												OFFSET 0.000000 2.842763 0.000000
												CHANNELS 3 Zrotation Yrotation Xrotation
												JOINT LeftHandPinky4
												{
													OFFSET -0.000000 2.639709 0.000000
													CHANNELS 3 Zrotation Yrotation Xrotation
													End Site
													{
														OFFSET 0.000000 0.000000 0.000000
													}
												}
											}
										}
									}
									JOINT LeftForeArmEnd
									{
										OFFSET 0.000000 0.000000 0.000000
										CHANNELS 3 Zrotation Yrotation Xrotation
										End Site
										{
											OFFSET 0.000000 0.000000 0.000000
										}
									}
								}
								JOINT LeftArmEnd
								{
									OFFSET 0.000000 0.000000 0.000000
									CHANNELS 3 Zrotation Yrotation Xrotation
									End Site
									{
										OFFSET 0.000000 0.000000 0.000000
									}
								}
							}
						}
					}
				}
			}
		}
	}
	JOINT RightUpLeg
	{
		OFFSET -11.289943 0.000000 0.000000
		CHANNELS 3 Zrotation Yrotation Xrotation
		JOINT RightLeg
		{
			OFFSET -0.000000 -38.200325 -0.000000
			CHANNELS 3 Zrotation Yrotation Xrotation
			JOINT RightFoot
			{
				OFFSET -0.000000 -39.900856 0.000000
				CHANNELS 3 Zrotation Yrotation Xrotation
				JOINT RightToeBase
				{
					OFFSET -0.000000 0.000000 15.261641
					CHANNELS 3 Zrotation Yrotation Xrotation
					JOINT RightToeBaseEnd
					{
						OFFSET 0.000000 -0.000000 7.370709
						CHANNELS 3 Zrotation Yrotation Xrotation
						End Site
						{
							OFFSET 0.000000 0.000000 0.000000
						}
					}
				}
				JOINT RightLegEnd
				{
					OFFSET 0.000000 0.000000 0.000000
					CHANNELS 3 Zrotation Yrotation Xrotation
					End Site
					{
						OFFSET 0.000000 0.000000 0.000000
					}
				}
			}
			JOINT RightUpLegEnd
			{
				OFFSET 0.000000 0.000000 0.000000
				CHANNELS 3 Zrotation Yrotation Xrotation
				End Site
				{
					OFFSET 0.000000 0.000000 0.000000
				}
			}
		}
	}
	JOINT LeftUpLeg
	{
		OFFSET 11.315661 0.000000 0.000000
		CHANNELS 3 Zrotation Yrotation Xrotation
		JOINT LeftLeg
		{
			OFFSET -0.000000 -38.200325 0.000000
			CHANNELS 3 Zrotation Yrotation Xrotation
			JOINT LeftFoot
			{
				OFFSET 0.000000 -39.900856 0.000000
				CHANNELS 3 Zrotation Yrotation Xrotation
				JOINT LeftToeBase
				{
					OFFSET 0.000000 0.000000 15.261641
					CHANNELS 3 Zrotation Yrotation Xrotation
					JOINT LeftToeBaseEnd
					{
						OFFSET -0.000000 0.000000 7.539996
						CHANNELS 3 Zrotation Yrotation Xrotation
						End Site
						{
							OFFSET 0.000000 0.000000 0.000000
						}
					}
				}
				JOINT LeftLegEnd
				{
					OFFSET 0.000000 0.000000 0.000000
					CHANNELS 3 Zrotation Yrotation Xrotation
					End Site
					{
						OFFSET 0.000000 0.000000 0.000000
					}
				}
			}
			JOINT LeftUpLegEnd
			{
				OFFSET 0.000000 0.000000 0.000000
				CHANNELS 3 Zrotation Yrotation Xrotation
				End Site
				{
					OFFSET 0.000000 0.000000 0.000000
				}
			}
		}
	}
}
MOTION
Frames: 4
Frame Time: 0.016667
-0.561981 88.293213 6.116135 -0.752233 -0.247108 -18.184277 -0.539544 -0.057986 11.337155 0.077140 -0.038341 5.200086 3.484956 -0.705021 12.776728 4.073735 0.070797 6.318517 9.492931 -2.362019 8.594892 1.468614 -0.010660 -1.223102 1.422132 1.398626 -19.726189 0.000000 0.000000 0.000000 90.271591 -0.063481 12.850746 52.082264 -21.660847 17.371761 0.044232 11.781002 31.591553 -0.122988 20.844433 -4.807057 10.338413 -1.814721 40.003887 0.000000 0.000000 -25.199999 0.000000 0.000000 -17.500000 0.000000 0.000000 0.000000 9.305265 16.810337 -8.820817 7.989124 -0.830810 -2.422781 7.988311 0.159486 -2.283802 0.000000 0.000000 0.000000 10.438777 6.901237 -9.683247 8.085579 -0.930209 -0.987575 8.084511 0.059852 -0.846930 0.000000 0.000000 0.000000 16.049095 -8.848570 -10.610435 10.008391 1.862631 1.569602 10.003068 -0.106956 1.222085 0.000000 0.000000 0.000000 21.975454 -25.402027 -13.183439 10.549150 3.542273 4.965705 10.529013 -0.390302 4.233947 0.000000 0.000000 0.000000 0.000000 0.000000 0.000000 0.000000 0.000000 0.000000 -88.788017 -0.324906 14.741026 -60.817120 35.806919 14.968603 -0.859005 -11.528786 34.307873 -3.024575 -16.530136 -11.265580 -10.338413 1.814721 40.003887 0.000000 0.000000 -25.199999 0.000000 0.000000 -17.500000 0.000000 0.000000 0.000000 -14.308848 16.752110 -10.085993 -7.652263 -0.844762 2.321190 -7.651453 0.146334 2.188035 0.000000 0.000000 0.000000 -12.206657 6.885773 -10.415578 -7.619748 -0.938008 0.931020 -7.618723 0.053163 0.798428 0.000000 0.000000 0.000000 -12.457405 -8.890223 -9.031109 -9.637301 1.872608 -1.511951 -9.632122 -0.099188 -1.177196 0.000000 0.000000 0.000000 -11.507509 -25.623438 -10.462993 -10.442948 3.551436 -4.916149 -10.422908 -0.382487 -4.191678 0.000000 0.000000 0.000000 0.000000 0.000000 0.000000 0.000000 0.000000 0.000000 1.541018 4.359470 13.324882 -0.140932 -0.511985 15.232203 -2.721220 -2.608064 15.840063 -0.685588 0.619322 -19.675484 0.000000 0.000000 0.000000 0.000000 0.000000 0.000000 0.000000 0.000000 0.000000 8.835239 11.407515 19.926649 0.217373 1.118443 10.729585 -4.226492 13.438424 15.112829 1.391971 -1.610826 -17.519897 0.000000 0.000000 0.000000 0.000000 0.000000 0.000000 0.000000 0.000000 0.000000 
-0.472422 88.032555 6.098002 -0.707392 -0.132674 -17.221743 -0.407906 0.080811 10.545528 0.605981 -0.241373 3.538710 3.521669 -1.128309 13.402385 3.526722 0.000480 7.297720 10.067083 -3.836061 10.085058 1.355267 0.102825 -0.620431 0.784285 0.813251 -17.909746 0.000000 0.000000 0.000000 89.415657 0.180400 12.243500 54.775398 -20.882757 16.704472 -0.149388 10.333843 31.560534 -0.878727 21.219017 -4.744841 10.424980 -1.837502 39.918953 -0.000010 -0.000010 -25.606476 -0.000006 0.000034 -17.753887 0.000006 -0.000007 -0.000005 8.846956 16.342937 -8.535446 7.793137 -0.757967 -2.463117 7.867949 0.190860 -2.326676 -0.000018 0.000005 -0.000010 10.376209 6.730810 -9.157697 7.823326 -0.897633 -0.985986 7.852861 0.067222 -0.838777 0.000014 0.000003 0.000008 16.839495 -8.691515 -8.777065 9.876824 1.832179 1.449336 9.815993 -0.095810 1.135867 -0.000019 -0.000568 0.000013 22.455551 -24.938560 -10.391047 10.757094 3.518297 4.360673 10.460938 -0.345008 3.706516 -0.000053 -0.000004 0.000004 0.000000 0.000000 0.000000 0.000000 0.000000 0.000000 -89.261353 -0.218374 15.593159 -60.324352 38.765625 13.381474 -1.123294 -14.181812 36.420036 -3.517744 -14.681499 -11.595661 -10.571737 1.839085 39.914036 -0.000002 0.000017 -25.688770 0.000059 -0.000016 -17.841139 -0.000383 -0.000006 0.000735 -13.996811 16.469238 -10.875352 -7.433295 -0.772201 2.518221 -7.452436 0.182870 2.400512 -0.000006 0.000365 -0.000011 -12.457741 6.772587 -10.902815 -7.464555 -0.908241 0.964926 -7.305795 0.062327 0.827007 0.000145 -0.000032 -0.000007 -12.637995 -8.732090 -9.220513 -9.267414 1.862324 -1.332886 -9.090434 -0.078238 -1.047708 0.000263 0.000009 -0.000008 -11.750361 -25.169319 -10.315830 -10.011555 3.596326 -3.692958 -9.870205 -0.246014 -3.169382 -0.000376 -0.000017 -0.000031 0.000000 0.000000 0.000000 0.000000 0.000000 0.000000 0.860795 3.960050 11.601222 -0.111368 -0.355323 17.368923 -3.243288 -3.179219 14.765618 -0.591880 0.715989 -18.914660 0.000000 0.000000 0.000000 0.000000 0.000000 0.000000 0.000000 0.000000 0.000000 8.537379 10.990355 18.445936 0.214929 0.982325 12.073986 -4.648933 12.253842 14.465387 1.067777 -1.591026 -16.711048 0.000000 0.000000 0.000000 0.000000 0.000000 0.000000 0.000000 0.000000 0.000000 
-0.461840 88.006142 6.027309 -0.759774 -0.093897 -17.466421 -0.380500 0.061629 10.592371 0.578264 -0.240899 3.584218 3.484296 -1.206316 13.344835 3.569046 -0.057733 7.344760 10.050671 -3.730981 10.122248 1.358276 0.170046 -0.595724 0.750163 0.807265 -17.959450 0.000000 0.000000 0.000000 89.475334 0.157156 12.180874 54.852962 -20.869066 16.878605 -0.178730 10.275243 31.632940 -1.120700 21.119564 -5.051077 10.415250 -1.838850 39.922966 -0.000005 0.000002 -25.568525 -0.000008 0.000032 -17.740582 0.000021 -0.000002 -0.000017 8.719282 16.313866 -8.442644 7.735417 -0.767866 -2.424476 7.804239 0.181021 -2.287977 -0.000004 0.000013 -0.000011 10.166447 6.725464 -9.122990 7.738641 -0.900825 -0.970396 7.761307 0.063871 -0.826210 0.000015 -0.000011 -0.000002 16.527561 -8.686630 -8.887190 9.729743 1.840064 1.426293 9.662315 -0.089871 1.115752 -0.000019 -0.000412 0.000003 22.098028 -24.925968 -10.565361 10.598981 3.542586 4.293153 10.286126 -0.325274 3.649311 -0.000128 0.000005 0.000007 0.000000 0.000000 0.000000 0.000000 0.000000 0.000000 -89.406769 -0.213369 15.657573 -59.890182 39.186043 13.351764 -1.101906 -13.869230 36.401306 -3.774381 -14.714400 -11.420817 -10.581262 1.834593 39.918755 0.000006 0.000025 -25.701090 0.000064 -0.000013 -17.844410 -0.000425 0.000001 0.000467 -14.027522 16.473965 -10.838853 -7.549527 -0.773069 2.529314 -7.557651 0.182273 2.407904 0.000009 0.000340 -0.000006 -12.459670 6.779502 -10.935378 -7.543017 -0.908873 0.965381 -7.391536 0.062257 0.828114 0.000226 -0.000031 -0.000027 -12.582910 -8.741843 -9.354909 -9.317603 1.862312 -1.332993 -9.143530 -0.077401 -1.046941 0.000464 0.000015 -0.000006 -11.700338 -25.213364 -10.493806 -10.080540 3.600385 -3.687132 -9.939026 -0.241498 -3.164909 -0.000352 0.000005 -0.000044 0.000000 0.000000 0.000000 0.000000 0.000000 0.000000 0.919938 4.019341 11.682009 -0.109294 -0.349125 17.512566 -3.256931 -3.247824 14.815441 -0.587756 0.701886 -18.931715 0.000000 0.000000 0.000000 0.000000 0.000000 0.000000 0.000000 0.000000 0.000000 8.565538 11.030923 18.710491 0.218898 1.005890 11.890919 -4.697091 12.030070 14.386250 1.094017 -1.609298 -16.725006 0.000000 0.000000 0.000000 0.000000 0.000000 0.000000 0.000000 0.000000 0.000000 
-0.453325 87.988075 5.971920 -0.784119 -0.089704 -17.669106 -0.391805 0.051258 10.620720 0.543551 -0.239009 3.604618 3.483767 -1.278323 13.313972 3.619432 -0.101446 7.370580 9.950129 -3.596843 10.083019 1.368398 0.257727 -0.641344 0.719736 0.806469 -18.006050 0.000000 0.000000 0.000000 89.566704 0.130805 12.130404 54.963734 -20.921007 16.924370 -0.188925 10.212850 31.573904 -1.289858 21.020607 -5.296914 10.370144 -1.835075 39.945812 -0.000003 0.000001 -25.443769 -0.000009 0.000034 -17.655294 0.000021 -0.000004 -0.000016 8.507986 16.300560 -8.330674 7.699381 -0.776491 -2.391371 7.760357 0.172033 -2.259238 -0.000003 0.000014 -0.000013 9.871615 6.727542 -9.070420 7.680719 -0.903702 -0.956635 7.704035 0.060445 -0.815655 0.000015 -0.000006 -0.000000 16.095879 -8.695571 -8.957932 9.602684 1.847190 1.404237 9.543913 -0.083975 1.097380 -0.000017 -0.000326 0.000004 21.567009 -24.939260 -10.676781 10.429862 3.565845 4.219091 10.115018 -0.304904 3.590445 -0.000188 0.000004 0.000008 0.000000 0.000000 0.000000 0.000000 0.000000 0.000000 -89.511993 -0.202924 15.663008 -59.532471 39.613029 13.411375 -1.095923 -13.670085 36.270634 -4.203375 -14.812181 -11.247415 -10.575954 1.830676 39.923729 0.000004 0.000025 -25.688822 0.000069 -0.000013 -17.835884 -0.000346 -0.000001 0.000316 -14.034820 16.468647 -10.807545 -7.622487 -0.775798 2.523501 -7.622063 0.179457 2.403199 0.000008 0.000304 -0.000006 -12.443223 6.781737 -10.978710 -7.591997 -0.910171 0.960516 -7.440899 0.061158 0.824714 0.000263 -0.000034 -0.000031 -12.504469 -8.746462 -9.511834 -9.331271 1.863726 -1.325704 -9.158959 -0.075643 -1.041047 0.000671 0.000015 -0.000006 -11.631021 -25.237934 -10.697972 -10.103288 3.607878 -3.660441 -9.960764 -0.233963 -3.143577 -0.000370 0.000004 -0.000044 0.000000 0.000000 0.000000 0.000000 0.000000 0.000000 0.950522 4.077000 11.746633 -0.109385 -0.349229 17.683739 -3.270577 -3.337526 14.830645 -0.583741 0.691518 -18.966112 0.000000 0.000000 0.000000 0.000000 0.000000 0.000000 0.000000 0.000000 0.000000 8.564751 11.083044 18.953264 0.220399 1.021792 11.714353 -4.710994 11.940990 14.308168 1.115401 -1.617712 -16.713675 0.000000 0.000000 0.000000 0.000000 0.000000 0.000000 0.000000 0.000000 0.000000 
